<?xml version="1.0" encoding="UTF-8"?>
<svg xmlns="http://www.w3.org/2000/svg" xmlns:xlink="http://www.w3.org/1999/xlink" width="336.91pt" height="97.56pt" viewBox="0 0 336.91 97.56" version="1.1">
<defs>
<clipPath id="clip1">
  <path d="M 0 0 L 336.910156 0 L 336.910156 97.558594 L 0 97.558594 Z M 0 0 "/>
</clipPath>
<clipPath id="clip2">
  <path d="M 1 0 L 148 0 L 148 97.558594 L 1 97.558594 Z M 1 0 "/>
</clipPath>
</defs>
<g id="surface1">
<g clip-path="url(#clip1)" clip-rule="nonzero">
<path style=" stroke:none;fill-rule:evenodd;fill:rgb(91.398621%,14.498901%,20.799255%);fill-opacity:1;" d="M 0 0 L 336.910156 0 L 336.910156 97.558594 L 0 97.558594 L 0 0 "/>
</g>
<path style=" stroke:none;fill-rule:nonzero;fill:rgb(100%,100%,100%);fill-opacity:1;" d="M 159.523438 34.820313 C 159.523438 34.820313 158.398438 34.820313 156.859375 34.820313 C 155.316406 34.820313 155.191406 36.402344 155.191406 36.402344 L 153.359375 45.945313 L 143.859375 45.945313 C 143.859375 45.945313 145.148438 39.320313 145.523438 36.902344 C 145.898438 34.488281 144.941406 34.777344 144.941406 34.777344 C 144.941406 34.777344 143.359375 34.777344 141.984375 34.777344 C 140.609375 34.777344 140.398438 36.402344 140.398438 36.402344 L 138.773438 45.738281 C 137.484375 45.738281 136.441406 46.320313 136.441406 47.820313 C 136.441406 49.320313 137.234375 49.570313 137.234375 49.570313 L 138.023438 49.695313 L 136.316406 58.238281 C 135.523438 60.945313 136.859375 60.777344 136.859375 60.777344 C 136.859375 60.777344 137.898438 60.777344 139.566406 60.777344 C 141.234375 60.777344 141.484375 58.945313 141.484375 58.945313 L 143.273438 49.777344 L 152.648438 49.777344 L 150.984375 59.152344 C 150.566406 61.195313 151.816406 60.820313 151.816406 60.820313 C 151.816406 60.820313 152.023438 60.820313 154.109375 60.820313 C 156.191406 60.820313 156.109375 59.613281 156.109375 59.613281 C 156.109375 59.613281 159.734375 39.527344 160.191406 37.195313 C 160.648438 34.863281 159.523438 34.820313 159.523438 34.820313 "/>
<path style=" stroke:none;fill-rule:nonzero;fill:rgb(100%,100%,100%);fill-opacity:1;" d="M 181.734375 35.152344 C 181.734375 35.152344 179.691406 35.152344 172.609375 35.152344 C 166.734375 35.152344 165.609375 42.695313 165.609375 42.695313 L 163.316406 55.320313 C 162.441406 59.820313 166.898438 61.070313 166.898438 61.070313 C 166.898438 61.070313 171.109375 61.070313 176.484375 61.070313 C 181.859375 61.070313 182.691406 56.488281 182.691406 56.488281 L 185.316406 42.988281 C 186.773438 34.613281 181.734375 35.152344 181.734375 35.152344 Z M 180.648438 41.527344 C 180.316406 43.988281 177.898438 55.777344 177.898438 55.777344 C 177.898438 55.777344 177.527344 57.363281 175.359375 57.363281 C 173.191406 57.363281 169.734375 57.363281 169.734375 57.363281 C 169.734375 57.363281 168.066406 57.738281 168.523438 54.988281 L 171.066406 40.277344 L 171.109375 40.152344 C 171.109375 40.152344 171.273438 38.820313 173.441406 38.820313 C 175.609375 38.820313 179.273438 38.820313 179.273438 38.820313 C 179.273438 38.820313 180.984375 39.070313 180.648438 41.527344 "/>
<path style=" stroke:none;fill-rule:nonzero;fill:rgb(100%,100%,100%);fill-opacity:1;" d="M 202.273438 57.488281 C 202.273438 57.488281 198.773438 57.488281 196.148438 57.488281 C 193.523438 57.488281 194.316406 55.613281 194.316406 55.613281 L 197.773438 38.070313 C 198.316406 34.90625 197.359375 35.152344 197.359375 35.152344 C 197.359375 35.152344 195.566406 35.152344 194.234375 35.152344 C 192.902344 35.152344 192.609375 37.652344 192.609375 37.652344 C 192.609375 37.652344 189.066406 54.363281 189.066406 57.320313 C 189.066406 60.28125 192.023438 61.277344 192.023438 61.277344 L 202.523438 61.277344 C 202.523438 61.277344 204.023438 61.113281 204.023438 59.320313 C 204.023438 57.53125 202.273438 57.488281 202.273438 57.488281 "/>
<path style=" stroke:none;fill-rule:nonzero;fill:rgb(100%,100%,100%);fill-opacity:1;" d="M 216.113281 35.164063 C 216.113281 35.164063 214.445313 35.164063 213.273438 35.164063 C 212.097656 35.164063 211.871094 36.5625 211.871094 36.5625 L 211.34375 39.140625 L 207.667969 59.394531 C 207.0625 61.859375 208.3125 61.59375 208.3125 61.59375 C 208.3125 61.59375 208.84375 61.59375 210.773438 61.59375 C 212.703125 61.59375 212.554688 60.34375 212.554688 60.34375 L 216.945313 37.359375 C 217.324219 34.859375 216.113281 35.164063 216.113281 35.164063 "/>
<path style=" stroke:none;fill-rule:nonzero;fill:rgb(100%,100%,100%);fill-opacity:1;" d="M 239.097656 35.65625 C 239.097656 35.65625 225.617188 35.65625 224.0625 35.65625 C 222.511719 35.65625 222.210938 37.585938 222.210938 37.585938 C 222.210938 39.328125 223.988281 39.441406 223.988281 39.441406 L 220.316406 58.675781 C 219.558594 62.007813 220.542969 61.707031 220.542969 61.707031 C 220.542969 61.707031 230.273438 61.707031 234.628906 61.707031 C 238.980469 61.707031 240.15625 57.425781 240.15625 57.425781 L 243.222656 40.578125 C 243.222656 35.84375 239.097656 35.65625 239.097656 35.65625 Z M 238.109375 41.449219 C 237.730469 43.605469 235.386719 55.914063 235.386719 55.914063 C 235.386719 55.914063 235.195313 57.996094 233.074219 57.957031 C 230.953125 57.917969 225.617188 57.957031 225.617188 57.957031 L 229.023438 39.441406 L 236.746094 39.441406 C 236.746094 39.441406 238.488281 39.289063 238.109375 41.449219 "/>
<path style=" stroke:none;fill-rule:nonzero;fill:rgb(100%,100%,100%);fill-opacity:1;" d="M 265.640625 35.84375 L 257.117188 35.84375 C 250.910156 35.84375 250.378906 40.652344 250.378906 40.652344 L 249.207031 47.089844 C 248.261719 47.089844 246.972656 47.542969 246.972656 49.058594 C 246.972656 50.574219 248.523438 50.914063 248.523438 50.914063 L 246.859375 59.8125 C 246.859375 59.8125 246.0625 61.894531 247.957031 61.894531 C 249.851563 61.894531 250.113281 61.933594 250.113281 61.933594 C 251.703125 61.933594 251.894531 60.265625 251.894531 60.265625 L 253.636719 51.027344 L 263.027344 50.953125 L 261.398438 59.625 C 260.789063 62.121094 261.929688 62.234375 261.929688 62.234375 C 261.929688 62.234375 262.949219 62.234375 264.652344 62.234375 C 266.359375 62.234375 266.511719 60.378906 266.511719 60.378906 L 269.574219 42.472656 C 270.332031 36.148438 265.640625 35.84375 265.640625 35.84375 Z M 264.691406 41.75 C 264.425781 43.796875 263.671875 47.203125 263.671875 47.203125 L 254.355469 47.128906 L 255.453125 41.144531 C 255.453125 41.144531 255.605469 39.667969 257.269531 39.667969 C 258.9375 39.667969 263.554688 39.667969 263.554688 39.667969 C 263.554688 39.667969 264.957031 39.707031 264.691406 41.75 "/>
<path style=" stroke:none;fill-rule:nonzero;fill:rgb(100%,100%,100%);fill-opacity:1;" d="M 294.875 36.257813 C 294.875 36.257813 294.007813 36.296875 292.3125 36.257813 C 290.613281 36.21875 290.574219 38.113281 290.574219 38.113281 L 288.917969 47.308594 C 288.917969 47.308594 284.027344 47.308594 281.5 47.308594 C 279.214844 47.308594 279.804688 45.570313 279.804688 45.570313 L 281.183594 38.390625 C 281.34375 36.179688 280.515625 36.101563 280.515625 36.101563 C 280.515625 36.101563 279.765625 36.101563 277.753906 36.101563 C 276.253906 36.101563 276.015625 38.074219 276.015625 38.074219 C 276.015625 38.074219 274.753906 44.585938 274.753906 47.347656 C 274.753906 51.449219 278.1875 51.175781 278.1875 51.175781 L 288.207031 51.175781 L 287.457031 56.777344 C 287.457031 58.828125 285.445313 58.511719 285.445313 58.511719 L 275.382813 58.511719 C 275.382813 58.511719 273.488281 58.355469 273.488281 60.289063 C 273.488281 62.222656 274.753906 62.300781 274.753906 62.300781 C 274.753906 62.300781 282.054688 62.300781 286.785156 62.300781 C 291.519531 62.300781 292.273438 57.804688 292.273438 57.804688 L 295.585938 38.507813 C 295.941406 36.140625 294.875 36.257813 294.875 36.257813 "/>
<path style=" stroke:none;fill-rule:nonzero;fill:rgb(100%,100%,100%);fill-opacity:1;" d="M 306.019531 41.816406 C 306.019531 41.816406 306.292969 40.015625 308.601563 40.015625 C 310.90625 40.015625 317.082031 40.015625 317.082031 40.015625 C 317.082031 40.015625 319.933594 40.253906 319.933594 38.082031 C 319.933594 36.046875 316.914063 36.488281 316.914063 36.488281 L 305.886719 36.488281 C 305.886719 36.488281 301.78125 36.183594 301.101563 41 L 300.015625 47.449219 C 300.015625 47.449219 299.914063 51.519531 304.527344 51.519531 C 309.144531 51.519531 312.773438 51.519531 312.773438 51.519531 C 312.773438 51.519531 313.894531 51.449219 313.65625 53.285156 L 312.875 57.761719 C 312.875 57.761719 313.113281 58.917969 310.703125 58.917969 C 308.296875 58.917969 300.320313 58.917969 300.320313 58.917969 C 300.320313 58.917969 298.351563 58.984375 298.351563 60.984375 C 298.351563 62.511719 300.933594 62.410156 300.933594 62.410156 L 313.214844 62.410156 C 313.214844 62.410156 317.148438 61.96875 317.691406 58.476563 L 318.882813 51.65625 C 318.882813 51.65625 318.914063 47.886719 314.402344 47.886719 C 309.890625 47.886719 306.089844 47.886719 306.089844 47.886719 C 306.089844 47.886719 304.933594 47.785156 305.238281 46.292969 L 306.019531 41.816406 "/>
<path style=" stroke:none;fill-rule:evenodd;fill:rgb(62.69989%,20.799255%,25.099182%);fill-opacity:1;" d="M 22.578125 10.90625 C 22.578125 10.90625 12.933594 13.109375 12.933594 26.039063 C 12.933594 38.96875 12.933594 79.269531 12.933594 79.269531 C 12.933594 79.269531 15.273438 90.273438 27.238281 90.273438 C 39.207031 90.273438 96.578125 90.273438 96.578125 90.273438 C 96.578125 90.273438 99.328125 90.824219 104.140625 85.320313 L 130.824219 55.199219 C 130.824219 55.199219 132.617188 52.464844 131.222656 49.695313 L 101.378906 82.84375 L 28.21875 83.257813 L 21.890625 77.207031 L 22.578125 10.90625 "/>
<path style=" stroke:none;fill-rule:evenodd;fill:rgb(92.199707%,10.598755%,23.098755%);fill-opacity:1;" d="M 18.890625 17.265625 C 18.890625 17.265625 19.027344 9.421875 27.140625 9.421875 C 35.257813 9.421875 97 9.421875 97 9.421875 C 97 9.421875 99.339844 8.597656 104.703125 14.925781 L 127.8125 42.574219 C 127.8125 42.574219 133.726563 46.835938 126.847656 53.988281 L 101.128906 83.011719 C 101.128906 83.011719 99.613281 84.800781 93.5625 84.800781 C 87.511719 84.800781 26.164063 84.800781 26.164063 84.800781 C 26.164063 84.800781 18.875 84.386719 18.875 73.519531 L 18.890625 17.265625 "/>
<g clip-path="url(#clip2)" clip-rule="nonzero">
<path style="fill:none;stroke-width:30;stroke-linecap:butt;stroke-linejoin:miter;stroke:rgb(97.999573%,65.499878%,24.699402%);stroke-opacity:1;stroke-miterlimit:4;" d="M 188.90625 802.94375 C 188.90625 802.94375 190.273438 881.38125 271.40625 881.38125 C 352.578125 881.38125 970 881.38125 970 881.38125 C 970 881.38125 993.398438 889.623438 1047.03125 826.342188 L 1278.125 549.857813 C 1278.125 549.857813 1337.265625 507.240625 1268.476563 435.717188 L 1011.289063 145.482813 C 1011.289063 145.482813 996.132813 127.592188 935.625 127.592188 C 875.117188 127.592188 261.640625 127.592188 261.640625 127.592188 C 261.640625 127.592188 188.75 131.732813 188.75 240.404688 Z M 188.90625 802.94375 " transform="matrix(0.1,0,0,-0.1,0,97.56)"/>
</g>
<path style=" stroke:none;fill-rule:nonzero;fill:rgb(62.69989%,20.799255%,25.099182%);fill-opacity:1;" d="M 122.808594 47.621094 C 122.808594 45.707031 121.253906 44.15625 119.339844 44.15625 C 117.671875 44.15625 116.277344 45.335938 115.949219 46.90625 C 116.289063 46.796875 116.644531 46.722656 117.019531 46.722656 C 118.933594 46.722656 120.484375 48.273438 120.484375 50.1875 C 120.484375 50.433594 120.457031 50.671875 120.410156 50.902344 C 121.796875 50.449219 122.808594 49.160156 122.808594 47.621094 "/>
<path style=" stroke:none;fill-rule:nonzero;fill:rgb(91.398621%,14.498901%,20.799255%);fill-opacity:1;" d="M 117.019531 46.722656 C 116.644531 46.722656 116.289063 46.796875 115.949219 46.90625 C 115.902344 47.136719 115.875 47.375 115.875 47.621094 C 115.875 49.535156 117.425781 51.085938 119.339844 51.085938 C 119.714844 51.085938 120.070313 51.011719 120.410156 50.902344 C 120.457031 50.671875 120.484375 50.433594 120.484375 50.1875 C 120.484375 48.273438 118.933594 46.722656 117.019531 46.722656 "/>
<path style=" stroke:none;fill-rule:evenodd;fill:rgb(100%,100%,100%);fill-opacity:1;" d="M 61.78125 13.621094 C 62.6875 15.355469 61.863281 17.257813 60.875 18.414063 C 58.648438 19.570313 58.730469 22.382813 57.085938 24.117188 C 56.671875 26.101563 54.941406 27.175781 54.859375 29.488281 C 54.117188 30.398438 53.871094 31.640625 53.871094 33.125 C 52.058594 34.449219 52.058594 37.175781 51.398438 39.410156 C 50.328125 44.535156 49.585938 49.742188 48.269531 54.535156 C 47.9375 56.269531 47.445313 58.089844 47.855469 59.992188 C 47.359375 63.050781 46.617188 66.023438 46.703125 69.578125 C 46.535156 70.324219 46.289063 70.902344 45.546875 71.316406 C 45.136719 71.480469 44.394531 71.480469 44.148438 71.148438 C 43.15625 69.828125 43.40625 67.59375 42.582031 66.191406 C 41.097656 60.15625 40.027344 53.875 39.367188 47.425781 L 38.957031 46.019531 L 38.710938 46.105469 C 37.554688 48.417969 36.730469 50.816406 35.742188 53.128906 C 35.332031 53.542969 34.753906 54.289063 33.929688 53.875 C 33.355469 53.542969 32.941406 53.128906 33.105469 52.21875 C 34.589844 46.765625 36.898438 41.972656 38.214844 36.515625 C 38.625 36.019531 39.617188 36.019531 40.355469 36.183594 C 42.003906 36.597656 41.097656 39.160156 41.511719 40.566406 C 42.746094 45.855469 42.910156 51.726563 44.3125 57.015625 C 44.804688 57.097656 44.890625 56.519531 45.054688 56.1875 C 46.371094 51.3125 47.28125 46.105469 48.433594 41.0625 C 49.339844 38.335938 49.09375 34.78125 50.820313 32.796875 C 52.304688 27.585938 54.199219 22.710938 55.683594 17.339844 C 56.175781 15.273438 56.917969 13.207031 59.308594 12.460938 C 60.378906 12.378906 61.285156 12.957031 61.78125 13.621094 "/>
<path style=" stroke:none;fill-rule:evenodd;fill:rgb(100%,100%,100%);fill-opacity:1;" d="M 83.613281 26.925781 C 84.027344 28.167969 83.121094 28.582031 82.871094 29.324219 C 82.296875 29.574219 81.554688 29.738281 81.144531 29.40625 C 80.402344 28.910156 80.238281 28.003906 80.484375 27.09375 C 80.730469 26.679688 81.144531 26.183594 81.71875 26.019531 C 82.625 25.851563 83.285156 26.511719 83.613281 26.925781 "/>
<path style=" stroke:none;fill-rule:evenodd;fill:rgb(100%,100%,100%);fill-opacity:1;" d="M 92.347656 30.398438 C 93.417969 32.21875 92.679688 34.449219 92.679688 36.597656 C 92.265625 37.671875 92.84375 38.746094 93.914063 39.242188 C 95.480469 39.492188 96.796875 38.335938 98.035156 37.671875 C 100.175781 36.765625 102.152344 33.707031 104.789063 35.523438 C 105.863281 36.433594 105.449219 38.003906 105.285156 39.410156 C 104.789063 39.988281 104.132813 40.484375 103.308594 40.730469 L 100.507813 40.730469 C 94.738281 43.707031 88.886719 46.847656 83.699219 50.320313 C 80.074219 51.726563 78.671875 54.867188 75.210938 56.519531 C 74.632813 57.261719 73.5625 57.757813 73.480469 58.832031 C 74.222656 60.902344 73.070313 62.964844 73.5625 65.199219 C 73.972656 67.265625 74.222656 69.414063 74.222656 71.730469 C 74.46875 74.375 75.867188 76.027344 76.363281 78.425781 C 76.363281 79.332031 75.707031 80.078125 74.71875 80.328125 C 73.894531 80.574219 72.902344 80.410156 72.242188 80.078125 C 71.421875 78.011719 71.667969 75.199219 71.007813 73.296875 C 71.089844 69.746094 70.925781 67.761719 70.351563 64.621094 L 70.019531 60.570313 C 69.773438 60.15625 69.195313 60.402344 68.949219 60.570313 C 65.324219 62.554688 63.425781 65.859375 60.296875 68.175781 C 59.472656 69.910156 57.414063 70.902344 56.09375 72.304688 C 54.117188 74.871094 51.398438 76.855469 48.925781 79.003906 C 48.183594 79.25 47.195313 79.828125 46.535156 79.003906 C 46.207031 78.671875 46.042969 78.257813 45.960938 77.679688 C 46.703125 75.78125 48.515625 74.703125 49.832031 73.136719 C 51.480469 71.066406 54.859375 70.15625 56.175781 67.925781 C 57.167969 66.4375 59.0625 65.695313 60.464844 64.535156 C 61.613281 62.964844 63.425781 61.5625 65.324219 60.320313 C 66.558594 58.503906 68.371094 56.933594 70.183594 55.609375 C 70.429688 55.363281 70.351563 54.699219 70.183594 54.371094 C 69.523438 54.699219 68.785156 55.609375 67.710938 55.363281 C 65.238281 54.453125 65.324219 51.640625 65.15625 49.164063 C 65.652344 47.097656 66.3125 45.113281 66.644531 42.960938 C 67.300781 41.390625 67.878906 39.824219 69.113281 38.582031 C 69.691406 38.25 70.679688 38.25 71.335938 38.664063 C 71.996094 39.242188 72.078125 40.566406 71.667969 41.390625 C 69.605469 43.210938 68.949219 46.105469 69.03125 49.164063 C 69.277344 49.410156 69.445313 49.078125 69.605469 48.996094 C 70.515625 46.105469 71.832031 43.375 72.738281 40.402344 C 73.070313 39.738281 74.054688 39.574219 74.796875 39.824219 C 75.707031 40.234375 75.867188 41.144531 75.867188 42.054688 C 75.375 45.113281 74.632813 48.003906 74.46875 51.3125 L 74.796875 51.972656 C 78.261719 50.816406 80.074219 48.003906 83.449219 46.601563 C 85.179688 45.03125 87.238281 44.035156 89.21875 42.632813 C 89.546875 42.054688 88.886719 41.804688 88.722656 41.390625 C 88.230469 39.65625 89.21875 38.5 89.136719 36.929688 L 89.050781 36.847656 C 86.992188 38.417969 86.5 41.226563 85.839844 43.707031 C 85.511719 44.121094 85.425781 44.699219 84.6875 44.863281 C 83.699219 45.113281 82.871094 44.449219 82.460938 43.953125 C 81.800781 41.308594 83.203125 39.324219 83.039063 36.679688 C 83.78125 35.191406 83.699219 33.125 85.261719 32.300781 C 86.089844 31.96875 86.746094 32.546875 87.40625 32.714844 C 88.722656 31.722656 90.042969 28.828125 92.347656 30.398438 "/>
<path style=" stroke:none;fill-rule:evenodd;fill:rgb(100%,100%,100%);fill-opacity:1;" d="M 81.226563 35.605469 C 81.71875 37.09375 80.566406 37.671875 80.484375 38.914063 C 80.402344 40.070313 79.742188 41.0625 79.90625 42.054688 C 79.824219 43.375 80.238281 44.535156 79.332031 45.609375 C 78.835938 46.019531 78.015625 46.105469 77.433594 45.9375 C 75.128906 44.535156 76.777344 42.386719 76.609375 40.234375 C 77.269531 38.582031 77.433594 36.597656 78.507813 35.277344 C 79.164063 34.449219 80.730469 34.78125 81.226563 35.605469 "/>
<path style=" stroke:none;fill-rule:evenodd;fill:rgb(100%,100%,100%);fill-opacity:1;" d="M 55.601563 39.078125 C 56.09375 39.492188 56.011719 40.898438 55.765625 41.390625 C 55.273438 41.886719 54.695313 42.386719 53.871094 42.136719 C 53.046875 41.886719 52.636719 41.308594 52.550781 40.484375 C 52.882813 39.738281 52.71875 38.417969 53.871094 38.25 C 54.695313 38.085938 55.191406 38.5 55.601563 39.078125 "/>
<path style=" stroke:none;fill-rule:evenodd;fill:rgb(100%,100%,100%);fill-opacity:1;" d="M 64.003906 43.789063 C 64.253906 44.367188 64.003906 45.113281 63.675781 45.691406 C 63.261719 46.847656 61.203125 46.519531 60.957031 47.839844 C 60.789063 49.988281 61.613281 52.882813 59.554688 53.625 C 58.566406 53.875 57.824219 53.542969 57.414063 52.882813 C 57.003906 52.21875 57.167969 50.898438 57.167969 50.070313 C 57.085938 48.417969 57.332031 46.683594 57.496094 45.03125 C 59.472656 44.121094 58.898438 41.390625 60.957031 40.730469 C 62.851563 40.8125 63.015625 42.714844 64.003906 43.789063 "/>
<path style=" stroke:none;fill-rule:evenodd;fill:rgb(100%,100%,100%);fill-opacity:1;" d="M 55.519531 45.773438 C 56.09375 46.433594 56.175781 47.757813 55.847656 48.582031 C 54.117188 50.320313 54.613281 54.039063 54.695313 56.519531 C 54.53125 57.261719 54.117188 58.007813 53.292969 58.253906 C 52.304688 58.585938 51.480469 57.925781 51.152344 57.261719 C 49.75 54.289063 51.808594 51.808594 51.894531 48.914063 C 52.058594 47.59375 52.71875 46.601563 53.292969 45.441406 C 53.789063 44.617188 55.191406 45.113281 55.519531 45.773438 "/>
</g>
</svg>
